<svg 
 xmlns="http://www.w3.org/2000/svg"
 xmlns:xlink="http://www.w3.org/1999/xlink"
 width="41px" height="40px">
<path fill-rule="evenodd"  fill="rgb(0, 0, 0)"
 d="M20.585,40.000 C9.539,40.000 0.585,31.046 0.585,20.000 C0.585,8.954 9.539,-0.000 20.585,-0.000 C31.631,-0.000 40.585,8.954 40.585,20.000 C40.585,31.046 31.631,40.000 20.585,40.000 ZM15.400,37.820 C14.283,36.812 13.291,35.499 12.454,33.979 C11.779,32.752 11.194,31.370 10.716,29.869 C9.215,29.391 7.833,28.806 6.606,28.130 C5.086,27.294 3.773,26.302 2.765,25.184 C4.530,31.263 9.322,36.055 15.400,37.820 ZM7.303,26.864 C8.192,27.353 9.175,27.794 10.235,28.179 C9.659,25.886 9.320,23.367 9.267,20.723 L2.081,20.723 C2.403,23.005 4.236,25.177 7.303,26.864 ZM9.267,19.277 C9.320,16.633 9.659,14.114 10.235,11.821 C9.175,12.206 8.192,12.647 7.303,13.136 C4.236,14.823 2.403,16.995 2.081,19.277 L9.267,19.277 ZM2.765,14.816 C3.773,13.698 5.086,12.706 6.606,11.870 C7.833,11.194 9.215,10.609 10.716,10.131 C11.194,8.630 11.779,7.248 12.454,6.021 C13.291,4.501 14.283,3.188 15.400,2.180 C9.322,3.945 4.530,8.737 2.765,14.816 ZM19.862,1.497 C17.581,1.818 15.408,3.651 13.721,6.717 C13.232,7.607 12.791,8.589 12.406,9.650 C14.699,9.074 17.218,8.734 19.862,8.682 L19.862,1.497 ZM19.862,10.128 C16.977,10.188 14.269,10.603 11.875,11.290 C11.188,13.683 10.773,16.392 10.713,19.277 L13.835,19.277 C16.590,18.201 18.786,16.006 19.862,13.251 L19.862,10.128 ZM19.862,26.749 C18.786,23.994 16.590,21.799 13.835,20.723 L10.713,20.723 C10.773,23.608 11.188,26.317 11.875,28.710 C14.269,29.397 16.977,29.812 19.862,29.872 L19.862,26.749 ZM19.862,31.318 C17.218,31.266 14.699,30.926 12.406,30.350 C12.791,31.410 13.232,32.393 13.721,33.283 C15.408,36.349 17.581,38.182 19.862,38.503 L19.862,31.318 ZM38.405,25.184 C37.397,26.302 36.085,27.294 34.564,28.130 C33.337,28.806 31.956,29.391 30.455,29.869 C29.976,31.370 29.390,32.752 28.715,33.979 C27.880,35.499 26.887,36.812 25.769,37.820 C31.848,36.055 36.639,31.263 38.405,25.184 ZM39.088,20.723 L31.903,20.723 C31.850,23.367 31.511,25.886 30.935,28.179 C31.995,27.794 32.978,27.353 33.867,26.864 C36.934,25.177 38.767,23.005 39.088,20.723 ZM21.308,38.503 C23.590,38.182 25.762,36.349 27.449,33.283 C27.937,32.393 28.379,31.410 28.764,30.350 C26.471,30.926 23.951,31.266 21.308,31.318 L21.308,38.503 ZM21.308,29.872 C24.193,29.812 26.902,29.397 29.294,28.710 C29.982,26.317 30.397,23.608 30.457,20.723 L27.336,20.723 C24.579,21.799 22.384,23.995 21.308,26.751 L21.308,29.872 ZM21.308,13.249 C22.384,16.005 24.579,18.201 27.336,19.277 L30.457,19.277 C30.397,16.392 29.982,13.683 29.294,11.290 C26.902,10.603 24.193,10.188 21.308,10.128 L21.308,13.249 ZM21.308,1.497 L21.308,8.682 C23.951,8.734 26.471,9.074 28.764,9.650 C28.379,8.589 27.937,7.607 27.449,6.717 C25.762,3.651 23.590,1.818 21.308,1.497 ZM25.769,2.180 C26.887,3.188 27.880,4.501 28.715,6.021 C29.390,7.248 29.976,8.630 30.455,10.131 C31.956,10.609 33.337,11.194 34.564,11.870 C36.085,12.706 37.397,13.698 38.405,14.816 C36.639,8.737 31.848,3.945 25.769,2.180 ZM33.867,13.136 C32.978,12.647 31.995,12.206 30.935,11.821 C31.511,14.114 31.850,16.633 31.903,19.277 L39.088,19.277 C38.767,16.995 36.934,14.823 33.867,13.136 Z"/>
</svg>